<svg width="551" height="551" viewBox="0 0 492 501" fill="none" xmlns="http://www.w3.org/2000/svg">
<g opacity="0.8">
<path fill-rule="evenodd" clip-rule="evenodd" d="M340.938 294.884C363.563 286.333 383.131 270.636 395.809 248.676C426.555 195.422 405.15 125.504 348.001 92.5089C290.851 59.5136 219.598 75.9357 188.852 129.189C185.766 134.534 183.205 140.047 181.153 145.674C137.642 141.786 93.7723 162.81 70.4923 203.132C38.5171 258.514 57.4926 329.332 112.875 361.307C130.147 371.279 148.92 376.295 167.548 376.798C171.583 406.6 188.884 434.28 216.945 450.481C265.054 478.257 326.57 461.773 354.345 413.665C376.973 374.472 370.227 326.381 340.938 294.884Z" fill="url(#paint0_linear_1282_26479)"/>
<path fill-rule="evenodd" clip-rule="evenodd" d="M340.938 294.884C363.563 286.333 383.131 270.636 395.809 248.676C426.555 195.422 405.15 125.504 348.001 92.5089C290.851 59.5136 219.598 75.9357 188.852 129.189C185.766 134.534 183.205 140.047 181.153 145.674C137.642 141.786 93.7723 162.81 70.4923 203.132C38.5171 258.514 57.4926 329.332 112.875 361.307C130.147 371.279 148.92 376.295 167.548 376.798C171.583 406.6 188.884 434.28 216.945 450.481C265.054 478.257 326.57 461.773 354.345 413.665C376.973 374.472 370.227 326.381 340.938 294.884Z" fill="url(#paint1_linear_1282_26479)" fill-opacity="0.8"/>
</g>
<defs>
<linearGradient id="paint0_linear_1282_26479" x1="398.849" y1="253.5" x2="54.8487" y2="253.5" gradientUnits="userSpaceOnUse">
<stop stop-color="#0000F5"/>
<stop offset="1" stop-color="#D63EE1"/>
</linearGradient>
<linearGradient id="paint1_linear_1282_26479" x1="378.5" y1="395" x2="99.0001" y2="164" gradientUnits="userSpaceOnUse">
<stop stop-opacity="0.9"/>
<stop offset="0.334429"/>
<stop offset="1" stop-opacity="0"/>
</linearGradient>
</defs>
</svg>
