<svg width="656" height="723" viewBox="0 0 656 723" fill="none" xmlns="http://www.w3.org/2000/svg">
<path fill-rule="evenodd" clip-rule="evenodd" d="M541.106 408.033C583.37 391.868 619.953 362.719 643.826 322.206C702.305 222.967 662.384 93.12 554.66 32.1841C446.935 -28.7518 312.201 2.29869 253.722 101.537C248.04 111.18 243.287 121.112 239.434 131.242C157.254 124.306 74.2042 163.709 29.9217 238.856C-30.8868 342.047 4.43331 473.564 108.811 532.607C141.636 551.175 177.381 560.364 212.855 561.028C220.132 616.588 252.643 668.133 305.682 698.135C396.351 749.423 512.673 718.334 565.495 628.696C608.512 555.696 596.149 466.378 541.106 408.033Z" fill="url(#paint0_linear_2922_2173)"/>
<path fill-rule="evenodd" clip-rule="evenodd" d="M541.106 408.033C583.37 391.868 619.953 362.719 643.826 322.206C702.305 222.967 662.384 93.12 554.66 32.1841C446.935 -28.7518 312.201 2.29869 253.722 101.537C248.04 111.18 243.287 121.112 239.434 131.242C157.254 124.306 74.2042 163.709 29.9217 238.856C-30.8868 342.047 4.43331 473.564 108.811 532.607C141.636 551.175 177.381 560.364 212.855 561.028C220.132 616.588 252.643 668.133 305.682 698.135C396.351 749.423 512.673 718.334 565.495 628.696C608.512 555.696 596.149 466.378 541.106 408.033Z" fill="url(#paint1_linear_2922_2173)" fill-opacity="0.8"/>
<defs>
<linearGradient id="paint0_linear_2922_2173" x1="645.5" y1="498" x2="169.608" y2="99.0819" gradientUnits="userSpaceOnUse">
<stop stop-color="#0000F5"/>
<stop offset="0.650813" stop-color="#D63EE1"/>
<stop offset="1" stop-color="#DD6B20"/>
</linearGradient>
<linearGradient id="paint1_linear_2922_2173" x1="610.928" y1="594.341" x2="91.0219" y2="157.511" gradientUnits="userSpaceOnUse">
<stop stop-opacity="0.9"/>
<stop offset="0.334429"/>
<stop offset="1" stop-opacity="0"/>
</linearGradient>
</defs>
</svg>
