<svg width="12" height="15" viewBox="0 0 10 10" fill="none" xmlns="http://www.w3.org/2000/svg">
<path d="M6.06095 4.99959L9.0297 2.03084C9.17059 1.89019 9.24985 1.69934 9.25002 1.50025C9.2502 1.30117 9.17128 1.11018 9.03063 0.969279C8.88999 0.828383 8.69913 0.74913 8.50005 0.748954C8.30097 0.748778 8.10997 0.827694 7.96907 0.968342L5.00032 3.93709L2.03157 0.968342C1.89068 0.827446 1.69958 0.748291 1.50032 0.748291C1.30107 0.748291 1.10997 0.827446 0.969074 0.968342C0.828178 1.10924 0.749023 1.30033 0.749023 1.49959C0.749023 1.69885 0.828178 1.88995 0.969074 2.03084L3.93782 4.99959L0.969074 7.96834C0.828178 8.10924 0.749023 8.30033 0.749023 8.49959C0.749023 8.69885 0.828178 8.88994 0.969074 9.03084C1.10997 9.17174 1.30107 9.25089 1.50032 9.25089C1.69958 9.25089 1.89068 9.17174 2.03157 9.03084L5.00032 6.06209L7.96907 9.03084C8.10997 9.17174 8.30106 9.25089 8.50032 9.25089C8.69958 9.25089 8.89068 9.17174 9.03157 9.03084C9.17247 8.88994 9.25162 8.69885 9.25162 8.49959C9.25162 8.30033 9.17247 8.10924 9.03157 7.96834L6.06095 4.99959Z" fill="white"/>
</svg>
