<svg width="25" height="25" viewBox="0 0 28 22" fill="none" xmlns="http://www.w3.org/2000/svg">
<path d="M23.7032 1.82368C21.9186 0.979578 20.0048 0.357681 18.0039 0.00149416C17.9674 -0.00538013 17.931 0.0117991 17.9123 0.0461583C17.6661 0.497402 17.3935 1.08609 17.2026 1.54879C15.0505 1.21666 12.9094 1.21666 10.8014 1.54879C10.6104 1.0758 10.3279 0.497402 10.0807 0.0461583C10.0619 0.0129455 10.0255 -0.00423374 9.98906 0.00149416C7.98923 0.356542 6.07549 0.978439 4.28976 1.82368C4.2743 1.83055 4.26105 1.84201 4.25225 1.85689C0.62229 7.44714 -0.372109 12.9 0.11571 18.2852C0.117917 18.3116 0.132265 18.3368 0.152131 18.3528C2.54708 20.1658 4.86699 21.2664 7.14383 21.996C7.18026 22.0075 7.21887 21.9937 7.24206 21.9628C7.78065 21.2046 8.26075 20.4052 8.67239 19.5645C8.69668 19.5153 8.67349 19.4569 8.62384 19.4374C7.86232 19.1396 7.1372 18.7765 6.43968 18.3642C6.38451 18.331 6.3801 18.2497 6.43085 18.2107C6.57763 18.0974 6.72446 17.9794 6.86461 17.8603C6.88997 17.8385 6.92531 17.8339 6.95512 17.8477C11.5375 20.0043 16.4985 20.0043 21.0268 17.8477C21.0566 17.8328 21.0919 17.8374 21.1184 17.8591C21.2586 17.9783 21.4054 18.0974 21.5533 18.2107C21.604 18.2497 21.6007 18.331 21.5455 18.3642C20.848 18.7845 20.1229 19.1396 19.3603 19.4362C19.3106 19.4557 19.2885 19.5153 19.3128 19.5645C19.7333 20.404 20.2134 21.2034 20.742 21.9616C20.7641 21.9937 20.8038 22.0075 20.8403 21.996C23.1282 21.2664 25.4481 20.1658 27.843 18.3528C27.864 18.3368 27.8772 18.3127 27.8794 18.2864C28.4633 12.0604 26.9016 6.65231 23.7396 1.85803C23.7319 1.84201 23.7186 1.83055 23.7032 1.82368ZM9.35669 15.0062C7.97708 15.0062 6.84032 13.7005 6.84032 12.0971C6.84032 10.4937 7.95504 9.18803 9.35669 9.18803C10.7694 9.18803 11.8951 10.5051 11.873 12.0971C11.873 13.7005 10.7583 15.0062 9.35669 15.0062ZM18.6605 15.0062C17.281 15.0062 16.1442 13.7005 16.1442 12.0971C16.1442 10.4937 17.2589 9.18803 18.6605 9.18803C20.0732 9.18803 21.199 10.5051 21.1769 12.0971C21.1769 13.7005 20.0732 15.0062 18.6605 15.0062Z" fill="#1A202C"/>
</svg>
