<svg width="25" height="25" viewBox="0 0 28 27" fill="none" xmlns="http://www.w3.org/2000/svg">
<path fill-rule="evenodd" clip-rule="evenodd" d="M13.9951 0C10.7455 0.00168604 7.60247 1.15263 5.12798 3.24704C2.65349 5.34145 1.00894 8.24274 0.488365 11.4321C-0.032206 14.6215 0.605152 17.8911 2.28649 20.6561C3.96782 23.4211 6.58349 25.5013 9.66577 26.5248C10.3458 26.651 10.6019 26.2295 10.6019 25.8712C10.6019 25.5128 10.5883 24.4738 10.5838 23.3379C6.77576 24.1606 5.97109 21.731 5.97109 21.731C5.35002 20.1533 4.45242 19.7386 4.45242 19.7386C3.21028 18.8957 4.54536 18.9115 4.54536 18.9115C5.92123 19.0084 6.6443 20.3156 6.6443 20.3156C7.86378 22.3958 9.8471 21.7941 10.6268 21.4425C10.7492 20.5613 11.1051 19.9618 11.4973 19.6214C8.45537 19.2789 5.25935 18.1114 5.25935 12.8961C5.2405 11.5436 5.74528 10.2356 6.66923 9.24277C6.5287 8.90019 6.05949 7.51637 6.80296 5.63671C6.80296 5.63671 7.95218 5.2716 10.5679 7.03181C12.8115 6.42174 15.1787 6.42174 17.4223 7.03181C20.0358 5.2716 21.1828 5.63671 21.1828 5.63671C21.9285 7.51186 21.4593 8.89568 21.3188 9.24277C22.2456 10.2358 22.7515 11.546 22.7309 12.9007C22.7309 18.1272 19.5281 19.2789 16.4817 19.6147C16.9713 20.0384 17.4087 20.8655 17.4087 22.1367C17.4087 23.9577 17.3929 25.4227 17.3929 25.8712C17.3929 26.234 17.6399 26.6577 18.3335 26.5248C21.4162 25.5012 24.0321 23.4206 25.7134 20.6551C27.3947 17.8896 28.0317 14.6196 27.5106 11.4299C26.9894 8.24023 25.344 5.3389 22.8687 3.24485C20.3934 1.15081 17.2497 0.000617343 13.9997 0H13.9951Z" fill="#1A202C"/>
</svg>
