<svg width="28" height="28" viewBox="0 0 28 28" fill="none" xmlns="http://www.w3.org/2000/svg">
<path fill-rule="evenodd" clip-rule="evenodd" d="M13.9954 0C10.6717 0.00177813 7.45706 1.21559 4.92619 3.42441C2.39533 5.63322 0.713301 8.69299 0.18087 12.0566C-0.351561 15.4202 0.300319 18.8683 2.01996 21.7844C3.7396 24.7004 6.41486 26.8943 9.56737 27.9736C10.2629 28.1067 10.5248 27.6623 10.5248 27.2843C10.5248 26.9064 10.5109 25.8107 10.5063 24.6127C6.61151 25.4803 5.78852 22.918 5.78852 22.918C5.1533 21.2542 4.23524 20.8168 4.23524 20.8168C2.9648 19.9279 4.3303 19.9445 4.3303 19.9445C5.73752 20.0467 6.47706 21.4253 6.47706 21.4253C7.72432 23.6192 9.75284 22.9845 10.5503 22.6138C10.6755 21.6844 11.0395 21.0521 11.4406 20.6932C8.3294 20.3319 5.06056 19.1007 5.06056 13.6006C5.04128 12.1741 5.55755 10.7947 6.50256 9.74764C6.35883 9.38635 5.87893 7.92694 6.63934 5.94461C6.63934 5.94461 7.81473 5.55955 10.4901 7.41591C12.7848 6.77251 15.2059 6.77251 17.5007 7.41591C20.1737 5.55955 21.3468 5.94461 21.3468 5.94461C22.1095 7.92218 21.6296 9.38159 21.4859 9.74764C22.4339 10.7949 22.9512 12.1767 22.9302 13.6053C22.9302 19.1173 19.6544 20.3319 16.5386 20.6861C17.0393 21.1329 17.4868 22.0053 17.4868 23.3458C17.4868 25.2664 17.4705 26.8113 17.4705 27.2843C17.4705 27.667 17.7232 28.1139 18.4326 27.9736C21.5855 26.8942 24.261 24.6999 25.9806 21.7834C27.7003 18.8668 28.3518 15.4182 27.8188 12.0543C27.2857 8.69033 25.6029 5.63053 23.0712 3.4221C20.5395 1.21367 17.324 0.000651064 14 0H13.9954Z" fill="#2D3748"/>
<path d="M5.29695 20.6098C5.26681 20.6812 5.15553 20.7025 5.06512 20.6526C4.9747 20.6027 4.90748 20.51 4.93993 20.4363C4.97239 20.3627 5.08135 20.3436 5.17176 20.3935C5.26218 20.4435 5.33172 20.5385 5.29695 20.6098Z" fill="#2D3748"/>
<path d="M5.86473 21.2589C5.81672 21.2837 5.76179 21.2906 5.70935 21.2785C5.65691 21.2664 5.61022 21.2359 5.57726 21.1924C5.48685 21.0925 5.46829 20.9547 5.53784 20.8929C5.60739 20.8311 5.73259 20.8596 5.823 20.9594C5.91342 21.0593 5.93428 21.1971 5.86473 21.2589Z" fill="#2D3748"/>
<path d="M6.41664 22.0839C6.33087 22.1457 6.1848 22.0839 6.10366 21.9603C6.08123 21.9381 6.06338 21.9115 6.05119 21.8821C6.039 21.8527 6.03271 21.8211 6.03271 21.7891C6.03271 21.7572 6.039 21.7256 6.05119 21.6962C6.06338 21.6667 6.08123 21.6402 6.10366 21.618C6.18944 21.5586 6.3355 21.618 6.41664 21.7392C6.49778 21.8604 6.5001 22.0221 6.41664 22.0839Z" fill="#2D3748"/>
<path d="M7.16519 22.8821C7.08869 22.9701 6.93336 22.9463 6.80585 22.8275C6.67835 22.7086 6.6482 22.547 6.7247 22.4614C6.80121 22.3759 6.95654 22.3996 7.08868 22.5161C7.22083 22.6326 7.24633 22.7966 7.16519 22.8821Z" fill="#2D3748"/>
<path d="M8.2155 23.3483C8.18073 23.46 8.02308 23.5099 7.86544 23.4624C7.70779 23.4148 7.60347 23.2817 7.6336 23.1676C7.66374 23.0535 7.82371 23.0012 7.98367 23.0535C8.14364 23.1058 8.24564 23.2318 8.2155 23.3483Z" fill="#2D3748"/>
<path d="M9.36118 23.4289C9.36118 23.5454 9.23136 23.6452 9.06444 23.6476C8.89752 23.65 8.76074 23.5549 8.76074 23.4384C8.76074 23.322 8.89056 23.2221 9.05748 23.2198C9.2244 23.2174 9.36118 23.3101 9.36118 23.4289Z" fill="#2D3748"/>
<path d="M10.4268 23.2456C10.4476 23.3621 10.3317 23.4833 10.1648 23.5118C9.99788 23.5404 9.85183 23.4714 9.83096 23.3573C9.8101 23.2433 9.93065 23.1197 10.0929 23.0888C10.2552 23.0579 10.4059 23.1292 10.4268 23.2456Z" fill="#2D3748"/>
</svg>
