<svg width="167" height="157" viewBox="0 0 167 157" fill="none" xmlns="http://www.w3.org/2000/svg">
<path fill-rule="evenodd" clip-rule="evenodd" d="M65.9997 157C121.78 157 167 111.781 167 56C167 0.219102 121.78 -45 65.9997 -45C10.2191 -45 -35 0.219102 -35 56C-35 111.781 10.2191 157 65.9997 157ZM116.499 37.5554H86.3097L107.511 5.5H91.4829L65.9574 44.1701L40.5166 5.5H24.4889L45.6895 37.5554H15.4997V49.9366H116.499V37.5554ZM85.7163 74.0206L107.171 106.5H91.1437L65.9574 68.3388L40.771 106.5H24.8282L46.2831 74.1054H15.4997V61.8089H116.499V74.0206H85.7163Z" fill="white" fill-opacity="0.08"/>
</svg>
