<svg width="17" height="16" viewBox="0 0 17 16" fill="none" xmlns="http://www.w3.org/2000/svg">
<path d="M8.5 0.125C4.15117 0.125 0.625 3.74258 0.625 8.20039C0.625 11.7687 2.88203 14.7922 6.01094 15.8609C6.05482 15.8705 6.09962 15.8752 6.14453 15.875C6.43633 15.875 6.54883 15.6605 6.54883 15.4742C6.54883 15.2809 6.54179 14.7746 6.53828 14.0996C6.27779 14.1607 6.0113 14.1925 5.74375 14.1945C4.22851 14.1945 3.88398 13.0168 3.88398 13.0168C3.52539 12.0852 3.00859 11.8355 3.00859 11.8355C2.32305 11.3539 3.00508 11.3398 3.05781 11.3398H3.06133C3.85234 11.4102 4.26719 12.1766 4.26719 12.1766C4.66094 12.8656 5.18828 13.059 5.65937 13.059C5.97087 13.0527 6.27755 12.9809 6.55937 12.848C6.62969 12.3277 6.83359 11.9727 7.05859 11.7687C5.31133 11.5648 3.47266 10.8723 3.47266 7.77851C3.47266 6.89609 3.77851 6.17539 4.28125 5.61289C4.20039 5.40898 3.92969 4.58633 4.35859 3.47539C4.41612 3.46162 4.47526 3.45571 4.53437 3.45781C4.81914 3.45781 5.4625 3.5668 6.52422 4.30508C7.81429 3.94413 9.17867 3.94413 10.4687 4.30508C11.5305 3.5668 12.1738 3.45781 12.4586 3.45781C12.5177 3.45571 12.5768 3.46162 12.6344 3.47539C13.0633 4.58633 12.7926 5.40898 12.7117 5.61289C13.2144 6.1789 13.5203 6.89961 13.5203 7.77851C13.5203 10.8793 11.6781 11.5613 9.92383 11.7617C10.2051 12.0113 10.4582 12.5035 10.4582 13.2559C10.4582 14.3352 10.4477 15.207 10.4477 15.4707C10.4477 15.6605 10.5566 15.875 10.8484 15.875C10.8957 15.8752 10.9428 15.8705 10.9891 15.8609C14.1215 14.7922 16.375 11.7652 16.375 8.20039C16.375 3.74258 12.8488 0.125 8.5 0.125Z" fill="white" fill-opacity="0.48"/>
</svg>
