				<svg
									width="14"
									height="14"
									viewBox="0 0 14 14"
									fill="none"
									xmlns="http://www.w3.org/2000/svg"
								>
									<path
										d="M13.5939 0.412854C13.4643 0.281804 13.31 0.177842 13.1399 0.107022C12.9698 0.0362035 12.7872 -5.65727e-05 12.603 0.000354407H8.7614C8.50941 0.000824247 8.26776 0.100649 8.0889 0.278167L0.409218 7.95629C0.147171 8.21887 0 8.57469 0 8.94566C0 9.31664 0.147171 9.67245 0.409218 9.93504L4.06547 13.5913C4.32812 13.8534 4.68406 14.0007 5.05515 14.0007C5.42625 14.0007 5.78219 13.8534 6.04484 13.5913L13.7214 5.91629C13.8993 5.73772 13.9995 5.49614 14.0002 5.2441V1.40035C14.0013 1.21704 13.966 1.03533 13.8962 0.865799C13.8265 0.696268 13.7237 0.5423 13.5939 0.412854ZM11.0002 4.00035C10.8024 4.00035 10.609 3.9417 10.4446 3.83182C10.2801 3.72194 10.152 3.56576 10.0763 3.38304C10.0006 3.20031 9.98078 2.99924 10.0194 2.80526C10.058 2.61128 10.1532 2.4331 10.293 2.29325C10.4329 2.15339 10.6111 2.05815 10.8051 2.01957C10.999 1.98098 11.2001 2.00079 11.3828 2.07647C11.5656 2.15216 11.7217 2.28033 11.8316 2.44478C11.9415 2.60923 12.0002 2.80257 12.0002 3.00035C12.0002 3.26557 11.8948 3.51992 11.7073 3.70746C11.5197 3.895 11.2654 4.00035 11.0002 4.00035Z"
										fill="white"
									/>
								</svg>