<svg width="15" height="14" viewBox="0 0 15 14" fill="none" xmlns="http://www.w3.org/2000/svg">
<path d="M13.1277 1.47113C13.1231 1.44869 13.1121 1.42804 13.0962 1.41162C13.0802 1.3952 13.0598 1.38369 13.0375 1.37843C11.5506 1.01476 8.11564 2.31058 6.25271 4.17215C5.9207 4.50143 5.61795 4.85898 5.34791 5.24074C4.77369 5.18879 4.19947 5.23254 3.71056 5.44582C2.32998 6.05285 1.9283 7.63824 1.81619 8.31882C1.81012 8.35612 1.81271 8.39431 1.82377 8.43044C1.83483 8.46656 1.85407 8.49966 1.87998 8.52716C1.90589 8.55466 1.93779 8.57582 1.97319 8.58901C2.0086 8.60219 2.04657 8.60705 2.08416 8.6032L4.30092 8.35984C4.30245 8.52704 4.31249 8.69405 4.33099 8.86023C4.34256 8.97509 4.39381 9.08232 4.47592 9.16347L5.33424 10.0218C5.41545 10.104 5.52279 10.1552 5.63775 10.1667C5.80293 10.1851 5.96894 10.1952 6.13513 10.1968L5.89205 12.4116C5.88825 12.4492 5.89314 12.4871 5.90633 12.5224C5.91952 12.5578 5.94067 12.5896 5.96813 12.6155C5.99559 12.6414 6.02863 12.6606 6.0647 12.6717C6.10077 12.6827 6.1389 12.6853 6.17615 12.6793C6.85701 12.57 8.44568 12.1683 9.04916 10.788C9.26244 10.2985 9.30619 9.7273 9.25697 9.15582C9.63985 8.88602 9.99842 8.58326 10.3286 8.25101C12.1983 6.39164 13.486 3.03218 13.1277 1.47113ZM8.66662 5.8423C8.5033 5.67902 8.39207 5.47098 8.347 5.24449C8.30193 5.01799 8.32504 4.78322 8.4134 4.56985C8.50176 4.35649 8.65141 4.17412 8.84343 4.04582C9.03544 3.91751 9.26119 3.84903 9.49213 3.84903C9.72306 3.84903 9.94881 3.91751 10.1408 4.04582C10.3328 4.17412 10.4825 4.35649 10.5709 4.56985C10.6592 4.78322 10.6823 5.01799 10.6372 5.24449C10.5922 5.47098 10.4809 5.67902 10.3176 5.8423C10.2093 5.95086 10.0806 6.03698 9.93898 6.09574C9.79733 6.1545 9.64548 6.18475 9.49213 6.18475C9.33877 6.18475 9.18692 6.1545 9.04527 6.09574C8.90361 6.03698 8.77494 5.95086 8.66662 5.8423V5.8423Z" stroke="white" stroke-width="1.5" stroke-linecap="round" stroke-linejoin="round"/>
<path d="M3.49797 9.62524C3.22538 9.65871 2.97179 9.78228 2.77746 9.97634C2.29566 10.4598 2.25 12.2502 2.25 12.2502C2.25 12.2502 4.04156 12.2046 4.52363 11.7222C4.71848 11.5282 4.84226 11.2742 4.875 11.0012" stroke="white" stroke-width="1.5" stroke-linecap="round" stroke-linejoin="round"/>
</svg>
