<svg width="177" height="93" viewBox="0 0 177 93" fill="none" xmlns="http://www.w3.org/2000/svg">
<path d="M175.434 1.32491C175.424 1.27757 175.401 1.23401 175.367 1.19936C175.333 1.16471 175.29 1.14041 175.243 1.12933C172.106 0.362002 164.858 3.09612 160.928 7.02392C160.227 7.7187 159.588 8.47311 159.019 9.2786C157.807 9.16898 156.595 9.26129 155.564 9.7113C152.651 10.9921 151.803 14.3372 151.567 15.7732C151.554 15.8519 151.559 15.9325 151.583 16.0087C151.606 16.0849 151.647 16.1548 151.701 16.2128C151.756 16.2708 151.823 16.3155 151.898 16.3433C151.973 16.3711 152.053 16.3813 152.132 16.3732L156.809 15.8597C156.813 16.2125 156.834 16.5649 156.873 16.9155C156.897 17.1579 157.005 17.3841 157.179 17.5554L158.99 19.3664C159.161 19.5397 159.388 19.6479 159.63 19.6722C159.979 19.711 160.329 19.7322 160.68 19.7356L160.167 24.4088C160.159 24.488 160.169 24.568 160.197 24.6426C160.225 24.7172 160.269 24.7844 160.327 24.839C160.385 24.8936 160.455 24.9341 160.531 24.9575C160.607 24.9808 160.688 24.9864 160.766 24.9737C162.203 24.7429 165.555 23.8954 166.828 20.983C167.278 19.9502 167.37 18.745 167.266 17.5392C168.074 16.97 168.831 16.3312 169.528 15.6301C173.473 11.7069 176.189 4.61866 175.434 1.32491ZM166.021 10.5479C165.676 10.2034 165.442 9.7644 165.346 9.2865C165.251 8.80861 165.3 8.31325 165.487 7.86306C165.673 7.41288 165.989 7.0281 166.394 6.75737C166.799 6.48665 167.275 6.34216 167.763 6.34216C168.25 6.34216 168.726 6.48665 169.131 6.75737C169.537 7.0281 169.852 7.41288 170.039 7.86306C170.225 8.31325 170.274 8.80861 170.179 9.2865C170.084 9.7644 169.849 10.2034 169.504 10.5479C169.276 10.7769 169.004 10.9586 168.706 11.0826C168.407 11.2066 168.086 11.2704 167.763 11.2704C167.439 11.2704 167.119 11.2066 166.82 11.0826C166.521 10.9586 166.249 10.7769 166.021 10.5479V10.5479Z" stroke="white" stroke-linecap="round" stroke-linejoin="round"/>
<path d="M155.116 18.5293C154.54 18.5999 154.005 18.8606 153.595 19.2701C152.579 20.2901 152.482 24.0679 152.482 24.0679C152.482 24.0679 156.263 23.9716 157.28 22.9538C157.691 22.5445 157.952 22.0085 158.021 21.4325" stroke="white" stroke-linecap="round" stroke-linejoin="round"/>
<path d="M17.0601 65.0002C-31.9399 97.6669 42.6135 101.238 88.06 72.5001C122.06 51.0002 147.227 28 149.06 25.5" stroke="url(#paint0_linear_3035_12457)" stroke-width="0.5"/>
<defs>
<linearGradient id="paint0_linear_3035_12457" x1="2.56005" y1="70.0002" x2="151.06" y2="29.0003" gradientUnits="userSpaceOnUse">
<stop stop-color="white" stop-opacity="0.5"/>
<stop offset="0.483595" stop-color="white" stop-opacity="0.516405"/>
<stop offset="1" stop-color="white" stop-opacity="0"/>
</linearGradient>
</defs>
</svg>
