<svg width="200" height="200" viewBox="0 0 200 200" fill="none" xmlns="http://www.w3.org/2000/svg">
<path d="M150.499 81.7381V81.2381H149.999H121.039L141.517 50.2758L142.03 49.5H141.1H125.231H124.961L124.813 49.7246L99.9585 87.3785L75.1866 49.7252L75.0384 49.5H74.7689H58.8999H57.9698L58.4829 50.2758L78.9604 81.2381H49.9997H49.4997V81.7381V93.9967V94.4967H49.9997H149.999H150.499V93.9967V81.7381ZM49.9997 118.426H79.5475L58.8189 149.724L58.3049 150.5H59.2358H75.0208H75.2899L75.4381 150.275L99.9578 113.124L124.477 150.275L124.626 150.5H124.895H140.764H141.693L141.181 149.724L120.451 118.342H149.999H150.499V117.842V105.751V105.251H149.999H49.9997H49.4997V105.751V117.926V118.426H49.9997ZM199.5 100C199.5 154.952 154.952 199.5 99.9997 199.5C45.0475 199.5 0.5 154.952 0.5 100C0.5 45.0475 45.0475 0.5 99.9997 0.5C154.952 0.5 199.5 45.0475 199.5 100Z" fill="url(#paint0_linear_2626_11703)" stroke="#E53E3E"/>
<defs>
<linearGradient id="paint0_linear_2626_11703" x1="0" y1="0" x2="200" y2="200" gradientUnits="userSpaceOnUse">
<stop stop-color="white" stop-opacity="0.1"/>
<stop offset="1" stop-color="white" stop-opacity="0"/>
</linearGradient>
</defs>
</svg>
