<svg width="209" height="24" viewBox="0 0 209 24" fill="none" xmlns="http://www.w3.org/2000/svg">
<path d="M32 13.9851C32.0636 16.88 34.3822 18.9358 37.9765 18.9358C41.1884 18.9358 43.4858 17.0688 43.4858 14.4676C43.507 11.5728 41.1036 10.7966 38.6359 10.3561C36.2966 9.95753 34.7647 9.64287 34.7647 8.13251C34.7647 6.74801 35.9349 6.03479 37.6153 6.03479C39.4019 6.03479 40.6569 7.04169 40.8266 8.53108H43.2301C43.1028 5.88795 40.8696 4 37.6153 4C34.4883 4 32.3188 5.76208 32.3188 8.30033C32.3188 11.2162 34.6586 11.9923 37.1257 12.4119C39.4867 12.8314 41.0393 13.167 41.0393 14.7194C41.0393 16.1248 39.7631 16.901 37.9978 16.901C35.9137 16.901 34.5307 15.7472 34.4035 14.0271L32 13.9851Z" fill="white"/>
<path d="M45.8926 15.8941C45.8926 17.8449 46.7859 18.8099 48.8706 18.8099H51.0825V16.8171H49.3384C48.5088 16.8171 48.2112 16.5024 48.2112 15.6633V10.0624H50.8274V8.06956H48.2112V5.06982H45.8926V8.06956H44V10.0624H45.8926V15.8941Z" fill="white"/>
<path d="M60.4464 8.06971L60.1701 9.643C59.4683 8.65707 58.3199 7.94385 56.6182 7.94385C53.6614 7.94385 51.4707 10.1255 51.4707 13.4399C51.4707 16.8801 53.6614 18.9359 56.6182 18.9359C58.3199 18.9359 59.4683 18.1388 60.1701 17.1738L60.4252 18.81H62.4462V8.06971H60.4464ZM57.0012 17.027C55.0868 17.027 53.8317 15.5586 53.8317 13.4399C53.8317 11.3422 55.0868 9.87375 57.0012 9.87375C58.915 9.87375 60.1701 11.3631 60.1701 13.4818C60.1701 15.5586 58.915 17.027 57.0012 17.027Z" fill="white"/>
<path d="M74.5167 14.9502H72.1769C71.9005 16.2089 70.9224 17.006 69.4971 17.006C67.6463 17.006 66.4343 15.5376 66.4343 13.4189C66.4343 11.3212 67.6463 9.87375 69.4971 9.87375C70.8794 9.87375 71.8581 10.6709 72.1556 11.8876H74.5167C74.0912 9.47518 72.3047 7.94385 69.5607 7.94385C66.2428 7.94385 64.0732 10.1255 64.0732 13.4189C64.0732 16.7333 66.2216 18.9359 69.4971 18.9359C72.2835 18.9359 74.0912 17.4046 74.5167 14.9502Z" fill="white"/>
<path d="M76.1475 4.12549V18.8095H78.4449V16.0615L80.3805 14.0477L83.6135 18.8095H86.3358L82.0179 12.3905L86.0806 8.0692H83.4221L78.4449 13.3135V4.12549H76.1475Z" fill="white"/>
<path d="M86.5615 15.2646C86.6252 17.5931 88.6032 18.9356 91.4957 18.9356C94.1124 18.9356 96.0693 17.6351 96.0693 15.5793C96.0693 13.1879 94.0482 12.6425 91.6023 12.3698C90.0497 12.181 89.0074 12.0971 89.0074 11.0902C89.0074 10.2301 89.9007 9.68471 91.2406 9.68471C92.5805 9.68471 93.538 10.3979 93.644 11.3629H95.8778C95.7287 9.16028 93.8567 7.94361 91.1981 7.94361C88.6244 7.92263 86.7742 9.24419 86.7742 11.279C86.7742 13.5026 88.7311 14.006 91.1769 14.2997C92.8362 14.5095 93.8143 14.6143 93.8143 15.7471C93.8143 16.6282 92.8574 17.1736 91.4745 17.1736C89.9007 17.1736 88.8583 16.3764 88.7735 15.2646H86.5615Z" fill="white"/>
<path d="M103.73 4.33594V19.0202H106.176V12.8107H112.004V10.734H106.176V6.47561H113.238V4.33594H103.73Z" fill="white"/>
<path d="M119.025 19.1458C122.343 19.1458 124.576 16.9433 124.576 13.6498C124.576 10.3774 122.343 8.15381 119.025 8.15381C115.707 8.15381 113.474 10.3774 113.474 13.6498C113.474 16.9433 115.707 19.1458 119.025 19.1458ZM119.025 17.216C117.09 17.216 115.835 15.7266 115.835 13.6498C115.835 11.5731 117.09 10.0837 119.025 10.0837C120.961 10.0837 122.237 11.5731 122.237 13.6498C122.237 15.7266 120.961 17.216 119.025 17.216Z" fill="white"/>
<path d="M133.675 8.2793V13.6075C133.675 15.8311 132.612 17.1736 130.868 17.1736C129.187 17.1736 128.336 16.0618 128.336 13.9641V8.2793H126.039V14.1949C126.039 17.9077 128.017 19.1454 130.336 19.1454C132.016 19.1454 133.016 18.4742 133.697 17.6561L133.952 19.0199H135.972V8.2793H133.675Z" fill="white"/>
<path d="M143.767 8.15381C142.001 8.15381 140.959 8.84606 140.278 9.68514L140.023 8.27967H138.023V19.0202H140.321V13.6079C140.321 11.4263 141.406 10.1047 143.235 10.1047C144.957 10.1047 145.83 11.1955 145.83 13.2303V19.0202H148.148V13.1044C148.148 9.39146 146.106 8.15381 143.767 8.15381Z" fill="white"/>
<path d="M158.3 4.33594V9.76904C157.598 8.82506 156.428 8.15379 154.769 8.15379C151.813 8.15379 149.622 10.3354 149.622 13.6498C149.622 17.0901 151.813 19.1457 154.769 19.1457C156.492 19.1457 157.62 18.3485 158.321 17.4047L158.598 19.0202H160.597V4.33594H158.3ZM155.152 17.2369C153.238 17.2369 151.983 15.7685 151.983 13.6498C151.983 11.5521 153.238 10.0837 155.152 10.0837C157.066 10.0837 158.321 11.5521 158.321 13.6918C158.321 15.7685 157.066 17.2369 155.152 17.2369Z" fill="white"/>
<path d="M171.2 8.27967L170.924 9.85296C170.222 8.86703 169.073 8.15381 167.372 8.15381C164.415 8.15381 162.225 10.3354 162.225 13.6498C162.225 17.0901 164.415 19.1458 167.372 19.1458C169.073 19.1458 170.222 18.3485 170.924 17.3838L171.179 19.0202H173.2V8.27967H171.2ZM167.755 17.2369C165.84 17.2369 164.586 15.7685 164.586 13.6498C164.586 11.5521 165.84 10.0837 167.755 10.0837C169.669 10.0837 170.924 11.5731 170.924 13.6918C170.924 15.7685 169.669 17.2369 167.755 17.2369Z" fill="white"/>
<path d="M175.997 16.104C175.997 18.0549 176.89 19.0201 178.975 19.0201H181.187V17.027H179.443C178.613 17.027 178.316 16.7124 178.316 15.8733V10.2724H180.932V8.27953H178.316V5.27979H175.997V8.27953H174.104V10.2724H175.997V16.104Z" fill="white"/>
<path d="M183.355 4C182.568 4 181.951 4.56638 181.951 5.36352C181.951 6.16065 182.568 6.72703 183.355 6.72703C184.142 6.72703 184.759 6.16065 184.759 5.36352C184.759 4.56638 184.142 4 183.355 4ZM182.207 8.27935V19.0199H184.504V8.27935H182.207Z" fill="white"/>
<path d="M191.689 19.1458C195.007 19.1458 197.24 16.9433 197.24 13.6498C197.24 10.3774 195.007 8.15381 191.689 8.15381C188.371 8.15381 186.138 10.3774 186.138 13.6498C186.138 16.9433 188.371 19.1458 191.689 19.1458ZM191.689 17.216C189.753 17.216 188.499 15.7266 188.499 13.6498C188.499 11.5731 189.753 10.0837 191.689 10.0837C193.624 10.0837 194.901 11.5731 194.901 13.6498C194.901 15.7266 193.624 17.216 191.689 17.216Z" fill="white"/>
<path d="M204.618 8.15381C202.853 8.15381 201.811 8.84606 201.13 9.68514L200.875 8.27967H198.875V19.0202H201.172V13.6079C201.172 11.4263 202.257 10.1047 204.086 10.1047C205.809 10.1047 206.681 11.1955 206.681 13.2303V19.0202H209V13.1044C209 9.39146 206.958 8.15381 204.618 8.15381Z" fill="white"/>
<path fill-rule="evenodd" clip-rule="evenodd" d="M12 24C18.6274 24 24 18.6274 24 12C24 5.37257 18.6274 0 12 0C5.37257 0 0 5.37257 0 12C0 18.6274 5.37257 24 12 24ZM17.9999 9.80857H14.413L16.9319 6H15.0277L11.9949 10.5945L8.97227 6H7.06799L9.58687 9.80857H5.99997V11.2796H17.9999V9.80857ZM14.3425 14.1411L16.8916 18H14.9874L11.9949 13.466L9.0025 18H7.10829L9.6574 14.1511H5.99997V12.6902H17.9999V14.1411H14.3425Z" fill="white"/>
</svg>
