<svg width="25" height="25" viewBox="0 0 25 20" fill="none" xmlns="http://www.w3.org/2000/svg">
<path d="M8.34021 19.55C17.2102 19.55 22.0602 12.2 22.0602 5.83001C22.0602 5.62001 22.0602 5.41001 22.0502 5.21001C22.9902 4.53001 23.8102 3.68001 24.4602 2.71001C23.6002 3.09001 22.6702 3.35001 21.6902 3.47001C22.6902 2.87001 23.4502 1.93001 23.8102 0.800012C22.8802 1.35001 21.8502 1.75001 20.7502 1.97001C19.8702 1.03001 18.6202 0.450012 17.2302 0.450012C14.5702 0.450012 12.4102 2.61001 12.4102 5.27001C12.4102 5.65001 12.4502 6.02001 12.5402 6.37001C8.53021 6.17001 4.98021 4.25001 2.60022 1.33001C2.19022 2.04001 1.95022 2.87001 1.95022 3.75001C1.95022 5.42001 2.80022 6.90001 4.10021 7.76001C3.31021 7.74001 2.57021 7.52001 1.92021 7.16001C1.92021 7.18001 1.92021 7.20001 1.92021 7.22001C1.92021 9.56001 3.58021 11.5 5.79021 11.95C5.39021 12.06 4.96021 12.12 4.52021 12.12C4.21021 12.12 3.91021 12.09 3.61021 12.03C4.22021 13.95 6.00022 15.34 8.11022 15.38C6.46022 16.67 4.38021 17.44 2.12021 17.44C1.73021 17.44 1.35021 17.42 0.970215 17.37C3.08021 18.75 5.62021 19.55 8.34021 19.55Z" fill="#1A202C"/>
</svg>
