				<svg
									width="10"
									height="14"
									viewBox="0 0 10 14"
									fill="none"
									xmlns="http://www.w3.org/2000/svg"
								>
									<path
										d="M5.285 0.879738C5.24979 0.838624 5.20611 0.805619 5.15694 0.782989C5.10777 0.760359 5.05428 0.748642 5.00015 0.748642C4.94603 0.748642 4.89254 0.760359 4.84337 0.782989C4.7942 0.805619 4.75052 0.838624 4.71531 0.879738C3.72594 2.03693 0.5 6.03755 0.5 9.00099C0.5 11.7625 2.23875 13.501 5 13.501C7.76125 13.501 9.5 11.7625 9.5 9.00099C9.5 6.03755 6.27406 2.03693 5.285 0.879738ZM5.5 11.876C5.43994 11.8761 5.38072 11.8618 5.32734 11.8343C5.27395 11.8068 5.22796 11.7668 5.19323 11.7178C5.1585 11.6688 5.13604 11.6122 5.12776 11.5527C5.11948 11.4932 5.1256 11.4326 5.14562 11.376C5.1712 11.3021 5.21942 11.2382 5.28344 11.1933C5.34746 11.1484 5.42401 11.1248 5.50219 11.126C5.99856 11.1249 6.47429 10.9273 6.82528 10.5763C7.17627 10.2253 7.37392 9.74955 7.375 9.25317C7.37385 9.175 7.3974 9.09845 7.44229 9.03443C7.48717 8.97041 7.55111 8.92218 7.625 8.89661C7.68162 8.87659 7.74223 8.87046 7.80172 8.87875C7.86121 8.88703 7.91784 8.90948 7.96684 8.94421C8.01584 8.97895 8.05579 9.02494 8.08331 9.07832C8.11083 9.13171 8.12513 9.19092 8.125 9.25099C8.12425 9.94695 7.84745 10.6142 7.35533 11.1063C6.86321 11.5984 6.19596 11.8752 5.5 11.876Z"
										fill="white"
									/>
								</svg>