<svg width="20" height="20" viewBox="0 0 20 20" fill="none" xmlns="http://www.w3.org/2000/svg">
<path fill-rule="evenodd" clip-rule="evenodd" d="M9.99997 20C15.5228 20 20 15.5229 20 10C20 4.47714 15.5228 0 9.99997 0C4.47714 0 0 4.47714 0 10C0 15.5229 4.47714 20 9.99997 20ZM14.9999 8.17381H12.0109L14.11 5H12.5231L9.99578 8.82872L7.47689 5H5.88999L7.98906 8.17381H4.99997V9.39967H14.9999V8.17381ZM11.9521 11.7842L14.0764 15H12.4895L9.99578 11.2217L7.50208 15H5.92358L8.04784 11.7926H4.99997V10.5751H14.9999V11.7842H11.9521Z" fill="white" fill-opacity="0.64"/>
</svg>
